<?xml version="1.0" encoding="utf-8"?>
<!-- Generator: Adobe Illustrator 24.0.3, SVG Export Plug-In . SVG Version: 6.00 Build 0)  -->
<svg version="1.0" id="Layer_1" xmlns="http://www.w3.org/2000/svg" xmlns:xlink="http://www.w3.org/1999/xlink" x="0px" y="0px"
	 viewBox="0 0 1455 1455" enable-background="new 0 0 1455 1455" xml:space="preserve">
<circle fill="#DBD4E9" cx="727.5" cy="726.5" r="465.74"/>
<linearGradient id="SVGID_1_" gradientUnits="userSpaceOnUse" x1="705.7358" y1="719.2906" x2="705.7358" y2="426.0545">
	<stop  offset="0" style="stop-color:#EDCDC7"/>
	<stop  offset="0.5" style="stop-color:#EDCDC7"/>
	<stop  offset="1" style="stop-color:#EEB4A4"/>
</linearGradient>
<path fill="url(#SVGID_1_)" d="M862.88,566.94c0-19.5-13.52-30.98-21.08-30.98c-15.58,0-23.62,7.47-27.5,13.21
	c0-18.38,0-29.53,0-49.99c0-85.06-76.31-72.15-109.09-72.72c-34.53-0.6-116.23,3.9-116.23,74.67c0,12.12,2.06,27.09,4.34,43.46
	c-4.64-4.49-12.05-8.63-23.65-8.63c-7.56,0-21.08,11.48-21.08,30.98c0,51.8,33.1,63.42,50.24,65.97
	c-0.31,38.13,7.57,86.38,103.13,86.38c98.97,0,110.79-48.67,112.16-86.62C831.61,629.67,862.88,617.28,862.88,566.94z"/>
<linearGradient id="SVGID_2_" gradientUnits="userSpaceOnUse" x1="706.835" y1="894.6063" x2="706.835" y2="709.9153">
	<stop  offset="0" style="stop-color:#EDCDC7"/>
	<stop  offset="0.5" style="stop-color:#EDCDC7"/>
	<stop  offset="1" style="stop-color:#EEB4A4"/>
</linearGradient>
<path fill="url(#SVGID_2_)" d="M764.3,740.07c0-6.33,0-19.22,0-30.15c-15.49,5.86-35.77,9.38-62.33,9.38
	c-22.47,0-40.09-2.67-53.89-7.24c0,14.45,0,36.05,0,45.55c0,79.22-29.87,94.15-42.21,94.15c-9.5,0-13.64,7.35-13.64,9.74
	c0,4.53,13.28,7.39,18.18,8.44c26.1,5.6,48.61,24.67,103.89,24.67c33.31,0,107.14-5.08,107.14-33.12
	C821.44,847.3,764.3,842.01,764.3,740.07z"/>
<linearGradient id="SVGID_3_" gradientUnits="userSpaceOnUse" x1="712.6802" y1="1232.6035" x2="712.6802" y2="835.929">
	<stop  offset="0" style="stop-color:#B07EB7"/>
	<stop  offset="0.5" style="stop-color:#8C3D96"/>
	<stop  offset="1" style="stop-color:#762A90"/>
</linearGradient>
<path fill="url(#SVGID_3_)" d="M821.44,836.29c-7.33,0-16.45-0.15-26.47-0.37c13.55,14.07,26.47,18.81,26.47,25.56
	c0,28.03-73.82,33.12-107.14,33.12c-55.28,0-77.79-19.07-103.89-24.67c-4.9-1.05-18.18-3.91-18.18-8.44c0-2.39,4.14-9.74,13.64-9.74
	c5.81,0,15.51-3.32,24.15-15.1c-205.42,16.17-402.92,103.96-402.92,299.05c0,36.85,7.62,96.9,111.05,96.9
	c83.83,0,236.26-27.22,395.22-27.22c127.38,0,305.94,27.22,374.53,27.22c33.32,0,90.37-4.35,90.37-97.99
	C1198.27,947.35,989.23,836.29,821.44,836.29z"/>
<linearGradient id="SVGID_4_" gradientUnits="userSpaceOnUse" x1="713.3775" y1="564.5104" x2="713.3775" y2="356.614">
	<stop  offset="0" style="stop-color:#E5CA9B"/>
	<stop  offset="0.5" style="stop-color:#E0BF86"/>
	<stop  offset="1" style="stop-color:#D09F43"/>
</linearGradient>
<path fill="url(#SVGID_4_)" d="M809.48,356.61c-91.8,0-128.39,42.55-163.76,42.55c-17.13,0-25.41-15.05-36.76-15.05
	c-15.9,0-29.6,4.72-29.6,34.18c0,20.4,7.26,28.19,7.67,37.83c0.71,16.71-9.64,49.85-7.67,66.46c1.31,11.08,4.18,41.92,15.34,41.92
	c0.53,0,1.03-0.12,1.53-0.32c-2.24-17.75-5-34.6-6.3-49.03c-0.44-12.95,13.21-33.39,20.12-42.68c15.44-20.78,38.34,0,95.7,0
	c58.15,0,85.47-22.07,91.41,0c3.42,12.71,15.43,20.23,17.15,32.19c1.77,12.34-1.94,56.19,0.74,49.95
	c5.8-13.52,13.81-39.27,13.81-66.8c0-14.72,17.38-23.6,17.38-56.24C846.23,413.15,858.72,356.61,809.48,356.61z"/>
<g>
	<linearGradient id="SVGID_5_" gradientUnits="userSpaceOnUse" x1="671.4128" y1="564.5104" x2="671.4128" y2="384.1132">
		<stop  offset="0" style="stop-color:#E5CA9B"/>
		<stop  offset="1" style="stop-color:#E0BF86"/>
	</linearGradient>
	<path fill="url(#SVGID_5_)" d="M763.72,465.65c-9.42-3.4-19.63-23.54-28.54-28.11c-15.12-7.75-53.33-1.37-66.98-11.49
		c-6.03-4.47-9.43-17.16-13.37-27.77c-3.07,0.57-6.09,0.88-9.11,0.88c-17.13,0-25.41-15.05-36.76-15.05
		c-15.9,0-29.6,4.72-29.6,34.18c0,20.4,7.26,28.19,7.67,37.83c0.71,16.71-9.64,49.85-7.67,66.46c1.31,11.08,4.18,41.92,15.34,41.92
		c0.53,0,1.03-0.12,1.53-0.32c-2.24-17.75-5-34.6-6.3-49.03c-0.44-12.95,13.21-33.39,20.12-42.68c15.44-20.78,38.34,0,95.7,0
		C730.35,472.49,749.43,468.53,763.72,465.65L763.72,465.65z"/>
	<linearGradient id="SVGID_6_" gradientUnits="userSpaceOnUse" x1="811.2003" y1="555.2263" x2="811.2003" y2="458.4147">
		<stop  offset="0" style="stop-color:#E5CA9B"/>
		<stop  offset="1" style="stop-color:#E0BF86"/>
	</linearGradient>
	<path fill="url(#SVGID_6_)" d="M823.95,460.56c-7.31-4.75-21.5-0.62-34.93,2.74c4.04,1.12,6.71,3.87,8.14,9.18
		c3.42,12.71,15.43,20.23,17.15,32.19c1.77,12.34-1.94,56.19,0.74,49.95c5.8-13.52,13.81-39.27,13.81-66.8
		c0-4.92,1.95-9.2,4.54-13.93C830.61,467.73,827.45,462.84,823.95,460.56z"/>
</g>
</svg>
