<?xml version="1.0" encoding="utf-8"?>
<!-- Generator: Adobe Illustrator 24.0.3, SVG Export Plug-In . SVG Version: 6.00 Build 0)  -->
<svg version="1.0" id="Layer_1" xmlns="http://www.w3.org/2000/svg" xmlns:xlink="http://www.w3.org/1999/xlink" x="0px" y="0px"
	 viewBox="0 0 1455 1455" enable-background="new 0 0 1455 1455" xml:space="preserve">
<circle fill="#FEE6D2" cx="727.5" cy="727.5" r="465.74"/>
<linearGradient id="SVGID_1_" gradientUnits="userSpaceOnUse" x1="705.7358" y1="719.2905" x2="705.7358" y2="426.0544">
	<stop  offset="0" style="stop-color:#FADEB8"/>
	<stop  offset="0.5169" style="stop-color:#E5C9A2"/>
	<stop  offset="1" style="stop-color:#BD9070"/>
</linearGradient>
<path fill="url(#SVGID_1_)" d="M862.88,566.94c0-19.5-13.52-30.98-21.08-30.98c-15.58,0-23.62,7.47-27.5,13.21
	c0-18.38,0-29.53,0-49.99c0-85.06-76.31-72.15-109.09-72.72c-34.53-0.6-116.23,3.9-116.23,74.67c0,12.12,2.06,27.09,4.34,43.46
	c-4.64-4.49-12.05-8.63-23.65-8.63c-7.56,0-21.08,11.48-21.08,30.98c0,51.8,33.1,63.42,50.24,65.97
	c-0.31,38.13,7.57,86.38,103.13,86.38c98.97,0,110.79-48.67,112.16-86.62C831.61,629.67,862.88,617.28,862.88,566.94z"/>
<linearGradient id="SVGID_2_" gradientUnits="userSpaceOnUse" x1="706.835" y1="894.6062" x2="706.835" y2="709.9153">
	<stop  offset="0" style="stop-color:#FADEB8"/>
	<stop  offset="0.5169" style="stop-color:#E5C9A2"/>
	<stop  offset="1" style="stop-color:#BD9070"/>
</linearGradient>
<path fill="url(#SVGID_2_)" d="M764.3,740.07c0-6.33,0-19.22,0-30.15c-15.49,5.86-35.77,9.38-62.33,9.38
	c-22.47,0-40.09-2.67-53.89-7.24c0,14.45,0,36.05,0,45.55c0,79.22-29.87,94.15-42.21,94.15c-9.5,0-13.64,7.35-13.64,9.74
	c0,4.53,13.28,7.39,18.18,8.44c26.1,5.6,48.61,24.67,103.89,24.67c33.31,0,107.14-5.08,107.14-33.11
	C821.44,847.3,764.3,842.01,764.3,740.07z"/>
<linearGradient id="SVGID_3_" gradientUnits="userSpaceOnUse" x1="712.6802" y1="1232.6035" x2="712.6802" y2="835.929">
	<stop  offset="0" style="stop-color:#EE765A"/>
	<stop  offset="1" style="stop-color:#C1515D"/>
</linearGradient>
<path fill="url(#SVGID_3_)" d="M821.44,836.29c-7.33,0-16.45-0.15-26.47-0.37c13.55,14.07,26.47,18.81,26.47,25.56
	c0,28.03-73.82,33.11-107.14,33.11c-55.28,0-77.79-19.07-103.89-24.67c-4.9-1.05-18.18-3.91-18.18-8.44c0-2.39,4.14-9.74,13.64-9.74
	c5.81,0,15.51-3.32,24.15-15.1c-205.42,16.17-402.92,103.96-402.92,299.05c0,36.85,7.62,96.9,111.05,96.9
	c83.83,0,236.26-27.22,395.22-27.22c127.38,0,305.94,27.22,374.53,27.22c33.32,0,90.37-4.35,90.37-97.99
	C1198.27,947.35,989.23,836.29,821.44,836.29z"/>
<linearGradient id="SVGID_4_" gradientUnits="userSpaceOnUse" x1="697.0645" y1="556.0029" x2="697.0645" y2="358.0109">
	<stop  offset="0" style="stop-color:#D0937A"/>
	<stop  offset="0.5" style="stop-color:#B25538"/>
	<stop  offset="1" style="stop-color:#A2311A"/>
</linearGradient>
<path fill="url(#SVGID_4_)" d="M611.56,472.3c11.66-11.26,48.41-12.02,64.27-8.63c17.61,3.77,43.76,33.64,61.24,37.95
	c14.69,3.62,46.13,0.78,60.38-4.31c8.45-3.02,25.95-12.39,29.33-20.7c5.78-14.22-7.48-45.49-11.21-60.38
	c-3.63-14.49-4.47-50.85-18.11-56.93c-19.62-8.74-57.53,29.84-78.28,35.37c-26.12,6.95-82.23,1.06-107.61,10.35
	c-12.44,4.56-38.42,17.98-43.56,30.19c-9.5,22.58,16.39,96.61,16.39,96.61s6.18,25.26,12.94,24.15
	C618.27,552.55,596.3,487.03,611.56,472.3z"/>
<linearGradient id="SVGID_5_" gradientUnits="userSpaceOnUse" x1="666.7635" y1="556.0029" x2="666.7635" y2="407.5933">
	<stop  offset="0" style="stop-color:#D0937A"/>
	<stop  offset="1" style="stop-color:#B25538"/>
</linearGradient>
<path fill="url(#SVGID_5_)" d="M731.36,460.8c-7.18-1.4-18.32,14.47-25.62,14.11c-13.61-0.67-31.91-26.82-44.92-30.86
	c-12.42-3.86-44.13,10.34-52.03,0c-4.58-5.99,11.91-22.69,7.94-29.1c-1.94-3.12-6.11-5.51-11.48-7.35
	c-13.37,5.93-32.86,17.21-37.24,27.61c-9.5,22.58,16.39,96.61,16.39,96.61s6.18,25.26,12.94,24.15
	c20.94-3.42-1.03-68.93,14.23-83.67c11.66-11.26,48.41-12.02,64.27-8.63c17.61,3.77,43.76,33.64,61.24,37.95
	c7.39,1.82,19.01,2.01,30.55,1.09C759.37,488.61,742.99,463.08,731.36,460.8z"/>
</svg>
