<?xml version="1.0" encoding="utf-8"?>
<!-- Generator: Adobe Illustrator 24.0.3, SVG Export Plug-In . SVG Version: 6.00 Build 0)  -->
<svg version="1.0" id="Layer_1" xmlns="http://www.w3.org/2000/svg" xmlns:xlink="http://www.w3.org/1999/xlink" x="0px" y="0px"
	 viewBox="0 0 1455 1455" enable-background="new 0 0 1455 1455" xml:space="preserve">
<circle fill="#CFEDF8" cx="727.5" cy="727.5" r="465.74"/>
<g>
	<linearGradient id="SVGID_1_" gradientUnits="userSpaceOnUse" x1="720.5559" y1="739.1261" x2="720.5559" y2="426.0545">
		<stop  offset="0" style="stop-color:#C39D8B"/>
		<stop  offset="0.5169" style="stop-color:#A26D56"/>
		<stop  offset="1" style="stop-color:#7A5246"/>
	</linearGradient>
	<path fill="url(#SVGID_1_)" d="M877.7,566.94c0-19.5-13.52-30.98-21.08-30.98c-15.58,0-23.62,7.47-27.5,13.21
		c0-15.07,0-26.46,0-45.04c0-90.81-76.31-77.03-109.09-77.64c-34.53-0.64-116.23,4.16-116.23,79.72c0,10.66,1.4,23.39,3.17,37.31
		c-4.68-4.05-11.81-7.55-22.48-7.55c-7.56,0-21.08,11.48-21.08,30.98c0,52.91,34.54,63.9,51.32,66.12
		c3.85,41.69,29.38,106.07,102.05,106.07c68.42,0,109.35-65.19,112.17-106.46C846.45,629.67,877.7,617.27,877.7,566.94z"/>
	<linearGradient id="SVGID_2_" gradientUnits="userSpaceOnUse" x1="721.6548" y1="894.6063" x2="721.6548" y2="718.2144">
		<stop  offset="0" style="stop-color:#C39D8B"/>
		<stop  offset="0.5169" style="stop-color:#A26D56"/>
		<stop  offset="1" style="stop-color:#7A5246"/>
	</linearGradient>
	<path fill="url(#SVGID_2_)" d="M779.12,740.07c0-4.77,0-13.27,0-21.85c-16.94,12.58-37.88,20.91-62.33,20.91
		c-22.08,0-39.8-5.95-53.89-15.39c0,12.67,0,26.7,0,33.87c0,79.22-29.87,94.15-42.21,94.15c-9.5,0-13.64,7.35-13.64,9.74
		c0,4.53,13.28,7.39,18.18,8.44c26.1,5.6,48.61,24.67,103.89,24.67c33.31,0,107.14-5.08,107.14-33.12
		C836.26,847.3,779.12,842.01,779.12,740.07z"/>
	<linearGradient id="SVGID_3_" gradientUnits="userSpaceOnUse" x1="727.5" y1="1232.6035" x2="727.5" y2="835.929">
		<stop  offset="0" style="stop-color:#5B57A5"/>
		<stop  offset="1" style="stop-color:#2E3092"/>
	</linearGradient>
	<path fill="url(#SVGID_3_)" d="M836.26,836.29c-7.33,0-16.45-0.15-26.47-0.37c13.55,14.07,26.47,18.81,26.47,25.56
		c0,28.03-73.82,33.12-107.14,33.12c-55.28,0-77.79-19.07-103.89-24.67c-4.9-1.05-18.18-3.91-18.18-8.44
		c0-2.39,4.14-9.74,13.64-9.74c5.81,0,15.51-3.32,24.15-15.1c-205.42,16.17-402.92,103.96-402.92,299.05
		c0,36.85,7.62,96.9,111.05,96.9c83.83,0,236.26-27.22,395.22-27.22c127.38,0,305.94,27.22,374.53,27.22
		c33.32,0,90.37-4.35,90.37-97.99C1213.09,947.35,1004.05,836.29,836.26,836.29z"/>
	<linearGradient id="SVGID_4_" gradientUnits="userSpaceOnUse" x1="727.5" y1="782.4435" x2="727.5" y2="223.2214">
		<stop  offset="0" style="stop-color:#4A6876"/>
		<stop  offset="0.5393" style="stop-color:#0A3542"/>
		<stop  offset="1" style="stop-color:#000000"/>
	</linearGradient>
	<path fill="url(#SVGID_4_)" d="M1051.29,448.86c0-64.58-41.98-83.25-66.43-83.25c-48.32,0-40.93-122.93-110.72-122.93
		c-39.59,0-42.36,38.13-67.96,38.13c-18.61,0-44.78-57.58-89.74-57.58c-26.49,0-41.61,53.69-95.3,53.69
		c-21.92,0-61.96-29.57-83.87-29.57c-23.49,0-14.09,24.75-14.09,34.23c0,55.24-31.23,56.02-48.32,56.02
		c-33.55,0-57.71,52.13-57.71,85.59c0,53.69,14.09,36.12,14.09,67.69c0,28.79-27.51,28.01-27.51,63.8
		c0,70.35,44.29,83.25,64.42,83.25c36.24,0,38.25,27.39,38.25,42.79c0,75.43,89.25,75.43,134.31,75.43c4.74,0,13.72,0,22.2,0
		c0-7.49,0-20.56,0-32.42c-32.29-21.64-45.48-61.65-48.16-90.68c-16.78-2.22-51.32-13.21-51.32-66.12
		c0-19.5,13.52-30.98,21.08-30.98c10.67,0,17.79,3.5,22.48,7.55c-1.77-13.92-3.17-26.65-3.17-37.31c0-75.56,81.7-80.36,116.23-79.72
		c32.77,0.61,109.09-13.17,109.09,77.64c0,18.58,0,29.97,0,45.04c3.88-5.74,11.92-13.21,27.5-13.21c7.56,0,21.08,11.48,21.08,30.98
		c0,50.33-31.25,62.73-48.74,65.73c-1.81,26.52-19.37,62.92-49.84,85.55c0,8.58,0,17.09,0,21.85c0,11.39,0.72,21.57,1.99,30.7
		c16.32,5.04,39.88,11.68,50.67,11.68c69.2,0,32.96-100.16,110.13-100.16c12.87,0,25.5,12.45,50.33,12.45
		c8.85,0,26.17-5.7,26.17-27.63c0-20-17.45-57.41-17.45-77.41C1000.96,529.78,1051.29,486.97,1051.29,448.86z"/>
	<g>
		<linearGradient id="SVGID_5_" gradientUnits="userSpaceOnUse" x1="645.9124" y1="756.158" x2="645.9124" y2="247.3414">
			<stop  offset="0" style="stop-color:#4A6876"/>
			<stop  offset="1" style="stop-color:#0A3542"/>
		</linearGradient>
		<path fill="url(#SVGID_5_)" d="M523.16,281.58c0,55.24-31.23,56.02-48.32,56.02c-33.55,0-57.71,52.13-57.71,85.59
			c0,53.69,14.09,36.12,14.09,67.69c0,28.79-27.51,28.01-27.51,63.8c0,70.35,44.29,83.25,64.42,83.25
			c36.24,0,38.25,27.39,38.25,42.79c0,75.43,89.25,75.43,134.31,75.43c4.74,0,13.72,0,22.2,0c0-7.49,0-20.56,0-32.42
			c-32.29-21.64-45.48-61.65-48.16-90.68c-16.78-2.22-51.32-13.21-51.32-66.12c0-19.5,13.52-30.98,21.08-30.98
			c10.67,0,17.79,3.5,22.48,7.55c-1.77-13.92-3.17-26.65-3.17-37.31c0-75.56,81.7-80.36,116.23-79.72
			c32.77,0.61,109.09-13.17,109.09,77.64c0,18.58,0,29.97,0,45.04c3.88-5.74,11.92-13.21,27.5-13.21c7.56,0,21.08,11.48,21.08,30.98
			c0,7.86-0.76,14.79-2.11,20.91c8.65-12.25,14.56-24.39,11.87-36.29c-4.75-21.04-42.86-33.98-51.2-53.87
			c-10.35-24.67,23.8-68.42,5.95-88.35c-15-16.74-65.91,18.11-88.35,16.72c-22.47-1.39-78.44-6.2-85.76-27.5
			c-6.78-19.72,51.74-48.65,46.97-68.95c-6.16-26.21-69.78-40.81-93.94-52.7c-21.92,0-61.96-29.57-83.87-29.57
			C513.77,247.34,523.16,272.09,523.16,281.58z"/>
		<linearGradient id="SVGID_6_" gradientUnits="userSpaceOnUse" x1="814.9846" y1="777.474" x2="814.9846" y2="627.527">
			<stop  offset="0" style="stop-color:#4A6876"/>
			<stop  offset="1" style="stop-color:#0A3542"/>
		</linearGradient>
		<path fill="url(#SVGID_6_)" d="M850.83,709.93c-0.94-16.74-13.59-38.21-14.57-54.95c-0.53-9.09,3.34-18.26,9.17-27.45
			c-5.91,2.8-11.7,4.32-16.47,5.14c-1.81,26.52-19.37,62.92-49.84,85.55c0,8.58,0,17.09,0,21.85c0,11.39,0.72,21.57,1.99,30.7
			c6.99,2.16,15.31,4.61,23.39,6.71C823.92,758.18,851.8,727.31,850.83,709.93z"/>
	</g>
</g>
</svg>
